:SAMPLES-PER-SECOND 30
:FULLY-SPECIFIED
:DEGREES
501
root  -16.6252 43.1176 23.4785 173.581 68.653 170.9
RightUpLeg  -13.8002 -9.74368 -11.0259
RightLeg  8.66378 -12.5636 -2.62629
RightFoot  37.5289 -7.89733 17.8835
RightToes  -1.74624e-010 0 -3.6325e-017
Spine  6.69764 -4.08972 0.686576
Spine1  22.1368 3.58023 -20.082
HEad  -3.4556 52.5103 -4.14177
LeftShoulder1  1.7275 -5.35779 -12.4221
LeftArm  16.9123 7.73255 -53.3306
LeftForeArm  17.5746 -73.9654 -43.9695
LeftHand  -2.65436 -2.28382 38.9889
RightShoulder  -0.00627627 -4.12532 -8.25239
RightArm  25.7392 13.5436 101.593
RightForeArm  59.0524 77.9182 102.836
RightHand  -4.29556 6.96174 -39.1382
LeftUpLeg  -7.50325 1.72048 4.96367
LeftLeg  9.30623 2.65736 1.13699
LeftFoot  34.6328 6.67798 -16.1773
LeftToes  -5.82109e-011 1.10366e-010 -8.03124e-011
502
root  -16.7794 43.9063 23.2554 170.988 70.4863 168.609
RightUpLeg  -12.1295 -9.31564 -10.5672
RightLeg  10.7346 -12.7524 -2.98855
RightFoot  36.4303 -8.16716 18.9192
RightToes  -1.74624e-010 0 -3.6325e-017
Spine  7.4987 -3.60165 -0.384326
Spine1  19.2955 3.75079 -20.7601
HEad  -0.701497 53.1874 -1.11513
LeftShoulder1  1.83409 -5.60997 -13.1196
LeftArm  16.7414 9.98202 -50.8614
LeftForeArm  23.9254 -75.3044 -49.1745
LeftHand  -2.62818 -2.32318 38.4495
RightShoulder  0.00728845 -5.44627 -9.99132
RightArm  28.172 15.3437 102.415
RightForeArm  78.9452 75.9492 123.099
RightHand  -4.2304 6.7877 -39.0929
LeftUpLeg  -5.32893 3.17776 5.00806
LeftLeg  5.63988 1.79935 -0.141931
LeftFoot  36.544 7.09598 -16.4387
LeftToes  -5.82109e-011 1.10366e-010 -8.03124e-011
503
root  -16.8572 44.2813 23.0403 168.644 71.0476 166.384
RightUpLeg  -9.91123 -7.59282 -10.2521
RightLeg  12.5749 -10.2459 -3.13656
RightFoot  35.751 -8.12963 19.1232
RightToes  -1.74624e-010 0 -3.6325e-017
Spine  7.04852 -3.32999 -1.79913
Spine1  18.0273 3.74515 -20.9726
HEad  1.20517 53.2671 0.956072
LeftShoulder1  1.9005 -5.60204 -13.9452
LeftArm  16.7697 10.8423 -48.9283
LeftForeArm  25.7222 -75.7861 -51.7879
LeftHand  -2.51751 -2.11972 37.8776
RightShoulder  0.0255243 -5.73971 -10.8061
RightArm  27.651 15.8351 102.001
RightForeArm  77.3196 76.2158 120.836
RightHand  -4.16737 6.66559 -38.915
LeftUpLeg  -4.54395 3.3906 4.70478
LeftLeg  5.64443 2.3293 -0.453264
LeftFoot  34.0024 6.43342 -15.8424
LeftToes  -5.82109e-011 1.10366e-010 -8.03124e-011
504
root  -16.887 44.1891 22.774 168.529 71.1103 165.982
RightUpLeg  -8.01681 -6.26642 -9.41886
RightLeg  14.5533 -9.2099 -3.09831
RightFoot  35.4987 -8.10992 19.1914
RightToes  -1.74624e-010 0 -3.6325e-017
Spine  5.15874 -3.18111 -2.40731
Spine1  18.3786 3.90563 -20.9324
HEad  1.08412 52.8691 0.905588
LeftShoulder1  1.82401 -5.15321 -14.1566
LeftArm  16.6391 10.7096 -48.5103
LeftForeArm  24.8978 -75.7248 -51.6585
LeftHand  -2.43077 -1.96424 37.386
RightShoulder  0.0244296 -5.462 -10.8734
RightArm  26.1063 15.3865 99.9224
RightForeArm  66.2367 77.3169 110.606
RightHand  -4.09986 6.54562 -38.6893
LeftUpLeg  -4.75603 3.29258 4.5966
LeftLeg  7.62152 2.76885 0.108391
LeftFoot  32.5587 5.49527 -14.1128
LeftToes  -5.82109e-011 1.10366e-010 -8.03124e-011
505
root  -16.9354 43.6776 22.4463 169.883 71.4786 167.058
RightUpLeg  -6.54503 -6.647 -8.2157
RightLeg  17.5408 -9.07925 -3.40054
RightFoot  32.721 -7.99253 20.1914
RightToes  -1.74624e-010 0 -3.6325e-017
Spine  2.95327 -2.89574 -2.0252
Spine1  19.2012 4.27141 -20.5393
HEad  -0.285102 52.5296 -0.257206
LeftShoulder1  1.69541 -4.59416 -14.012
LeftArm  16.2843 10.5996 -49.0533
LeftForeArm  24.6873 -75.6612 -51.2857
LeftHand  -2.38684 -1.93093 36.9127
RightShoulder  0.0136262 -5.09337 -10.3929
RightArm  25.1563 14.1886 96.7735
RightForeArm  58.8984 77.6712 104.743
RightHand  -4.1078 6.55642 -38.7262
LeftUpLeg  -4.7849 2.63824 4.84779
LeftLeg  9.68439 2.23152 0.959087
LeftFoot  32.7184 5.06208 -12.9858
LeftToes  -5.82109e-011 1.10366e-010 -8.03124e-011
506
root  -17.0375 42.8762 22.0924 171.674 71.6948 168.785
RightUpLeg  -4.99051 -8.52307 -7.25385
RightLeg  20.6503 -8.68741 -3.81017
RightFoot  25.9716 -6.81965 20.536
RightToes  -1.74624e-010 0 -3.6325e-017
Spine  1.4972 -2.61675 -1.2121
Spine1  19.4118 4.36902 -19.5353
HEad  -0.999636 52.4751 -0.57543
LeftShoulder1  1.63705 -4.26406 -14.1629
LeftArm  16.1144 10.7303 -49.1859
LeftForeArm  25.7542 -75.8482 -52.2448
LeftHand  -2.33388 -1.88028 36.3838
RightShoulder  0.0016164 -4.75053 -9.51722
RightArm  24.6583 12.161 93.5737
RightForeArm  60.2316 77.5994 105.956
RightHand  -4.09939 6.57663 -38.5935
LeftUpLeg  -4.55984 1.00396 5.20741
LeftLeg  12.0008 1.43097 1.30703
LeftFoot  29.1831 4.81496 -13.5106
LeftToes  -5.82109e-011 1.10366e-010 -8.03124e-011
507
root  -17.1883 41.8262 21.7371 173.2 71.4336 170.609
RightUpLeg  -3.17085 -10.5435 -6.68695
RightLeg  23.1242 -8.87947 -4.35607
RightFoot  14.8952 -4.46716 19.3903
RightToes  -1.74624e-010 0 -3.6325e-017
Spine  1.19314 -2.53354 -0.238894
Spine1  18.9536 4.13815 -18.3401
HEad  -0.988929 52.2987 0.0551678
LeftShoulder1  1.56326 -3.80878 -14.4916
LeftArm  16.258 10.3923 -49.0679
LeftForeArm  26.4001 -75.968 -52.8864
LeftHand  -2.25213 -1.76842 35.7048
RightShoulder  -0.00902304 -4.43524 -8.22173
RightArm  23.9575 9.75664 90.6708
RightForeArm  64.2879 77.485 108.46
RightHand  -3.89418 6.31002 -37.5725
LeftUpLeg  -4.50454 -0.949819 5.45175
LeftLeg  15.928 2.00928 1.20602
LeftFoot  18.0036 3.7462 -14.7136
LeftToes  -5.82109e-011 1.10366e-010 -8.03124e-011
